<?xml version="1.0" encoding="UTF-8" standalone="no"?>
<svg width="800" height="450" viewBox="0 0 800 450" fill="none" xmlns="http://www.w3.org/2000/svg">
  <rect width="800" height="450" fill="#F8FAFC"/>
  
  <!-- Header -->
  <rect x="0" y="0" width="800" height="60" fill="#FFFFFF"/>
  <rect x="20" y="20" width="120" height="20" rx="4" fill="#2563EB"/>
  <rect x="690" y="15" width="30" height="30" rx="15" fill="#E2E8F0"/>
  <rect x="730" y="15" width="30" height="30" rx="15" fill="#E2E8F0"/>
  
  <!-- Sidebar -->
  <rect x="0" y="60" width="220" height="390" fill="#FFFFFF"/>
  <rect x="20" y="90" width="180" height="40" rx="6" fill="#FFFFFF"/>
  <rect x="30" y="105" width="20" height="10" rx="2" fill="#94A3B8"/>
  <rect x="60" y="100" width="110" height="20" rx="2" fill="#94A3B8"/>
  
  <rect x="20" y="140" width="180" height="30" rx="6" fill="#EFF6FF"/>
  <rect x="30" y="150" width="20" height="10" rx="2" fill="#2563EB"/>
  <rect x="60" y="150" width="110" height="10" rx="2" fill="#2563EB"/>
  
  <rect x="20" y="180" width="180" height="30" rx="6" fill="#FFFFFF"/>
  <rect x="30" y="190" width="20" height="10" rx="2" fill="#94A3B8"/>
  <rect x="60" y="190" width="110" height="10" rx="2" fill="#94A3B8"/>
  
  <rect x="20" y="220" width="180" height="30" rx="6" fill="#FFFFFF"/>
  <rect x="30" y="230" width="20" height="10" rx="2" fill="#94A3B8"/>
  <rect x="60" y="230" width="110" height="10" rx="2" fill="#94A3B8"/>
  
  <!-- Main Content -->
  <rect x="240" y="80" width="540" height="50" rx="6" fill="#FFFFFF"/>
  <rect x="260" y="95" width="200" height="20" rx="2" fill="#1E293B"/>
  
  <!-- Search and Filter -->
  <rect x="240" y="150" width="540" height="60" rx="8" fill="#FFFFFF"/>
  <rect x="260" y="170" width="300" height="20" rx="4" fill="#E2E8F0"/>
  <rect x="580" y="170" width="80" height="20" rx="4" fill="#2563EB"/>
  <rect x="680" y="170" width="80" height="20" rx="4" fill="#E2E8F0"/>
  
  <!-- Inventory Table -->
  <rect x="240" y="230" width="540" height="200" rx="8" fill="#FFFFFF"/>
  
  <!-- Table Header -->
  <rect x="260" y="250" width="500" height="30" rx="4" fill="#F1F5F9"/>
  <rect x="270" y="260" width="60" height="10" rx="2" fill="#64748B"/>
  <rect x="350" y="260" width="60" height="10" rx="2" fill="#64748B"/>
  <rect x="430" y="260" width="60" height="10" rx="2" fill="#64748B"/>
  <rect x="510" y="260" width="60" height="10" rx="2" fill="#64748B"/>
  <rect x="590" y="260" width="60" height="10" rx="2" fill="#64748B"/>
  <rect x="670" y="260" width="60" height="10" rx="2" fill="#64748B"/>
  
  <!-- Table Rows -->
  <rect x="260" y="290" width="500" height="1" fill="#E2E8F0"/>
  <rect x="270" y="300" width="60" height="10" rx="2" fill="#0F172A"/>
  <rect x="350" y="300" width="60" height="10" rx="2" fill="#0F172A"/>
  <rect x="430" y="300" width="60" height="10" rx="2" fill="#0F172A"/>
  <rect x="510" y="300" width="30" height="10" rx="2" fill="#16A34A"/>
  <rect x="590" y="300" width="60" height="10" rx="2" fill="#0F172A"/>
  <rect x="670" y="300" width="40" height="20" rx="4" fill="#2563EB"/>
  
  <rect x="260" y="330" width="500" height="1" fill="#E2E8F0"/>
  <rect x="270" y="340" width="60" height="10" rx="2" fill="#0F172A"/>
  <rect x="350" y="340" width="60" height="10" rx="2" fill="#0F172A"/>
  <rect x="430" y="340" width="60" height="10" rx="2" fill="#0F172A"/>
  <rect x="510" y="340" width="30" height="10" rx="2" fill="#DC2626"/>
  <rect x="590" y="340" width="60" height="10" rx="2" fill="#0F172A"/>
  <rect x="670" y="340" width="40" height="20" rx="4" fill="#2563EB"/>
  
  <rect x="260" y="370" width="500" height="1" fill="#E2E8F0"/>
  <rect x="270" y="380" width="60" height="10" rx="2" fill="#0F172A"/>
  <rect x="350" y="380" width="60" height="10" rx="2" fill="#0F172A"/>
  <rect x="430" y="380" width="60" height="10" rx="2" fill="#0F172A"/>
  <rect x="510" y="380" width="30" height="10" rx="2" fill="#16A34A"/>
  <rect x="590" y="380" width="60" height="10" rx="2" fill="#0F172A"/>
  <rect x="670" y="380" width="40" height="20" rx="4" fill="#2563EB"/>
  
  <!-- Pagination -->
  <rect x="240" y="390" width="540" height="40" rx="0" fill="#FFFFFF"/>
  <rect x="500" y="400" width="30" height="20" rx="4" fill="#E2E8F0"/>
  <rect x="540" y="400" width="30" height="20" rx="4" fill="#2563EB"/>
  <rect x="580" y="400" width="30" height="20" rx="4" fill="#E2E8F0"/>
  <rect x="620" y="400" width="30" height="20" rx="4" fill="#E2E8F0"/>
  <rect x="660" y="400" width="30" height="20" rx="4" fill="#E2E8F0"/>
  <rect x="700" y="400" width="30" height="20" rx="4" fill="#E2E8F0"/>
  
  <!-- Add Item Button -->
  <rect x="680" y="80" width="100" height="40" rx="6" fill="#2563EB"/>
  <rect x="700" y="95" width="60" height="10" rx="2" fill="#FFFFFF"/>
</svg>