<?xml version="1.0" encoding="UTF-8" standalone="no"?>
<svg width="800" height="600" viewBox="0 0 800 600" xmlns="http://www.w3.org/2000/svg">
  <rect width="800" height="600" fill="#f8f9fa"/>
  <rect x="20" y="20" width="760" height="560" rx="5" fill="#ffffff" stroke="#e9ecef"/>
  
  <!-- Header -->
  <rect x="20" y="20" width="760" height="60" rx="5" fill="#f8f9fa" stroke="#e9ecef"/>
  <text x="40" y="55" font-family="Arial" font-size="18" font-weight="bold" fill="#212529">Inventory Management System</text>
  <rect x="650" y="35" width="100" height="30" rx="15" fill="#e9ecef"/>
  <text x="700" y="55" font-family="Arial" font-size="12" text-anchor="middle" fill="#495057">PRIVATE</text>
  
  <!-- Sidebar -->
  <rect x="20" y="80" width="180" height="500" fill="#f8f9fa" stroke="#e9ecef"/>
  <text x="40" y="110" font-family="Arial" font-size="14" fill="#6c757d">Dashboard</text>
  <text x="40" y="150" font-family="Arial" font-size="14" fill="#6c757d">Inventory</text>
  <text x="40" y="190" font-family="Arial" font-size="14" font-weight="bold" fill="#495057">Transactions</text>
  <text x="40" y="230" font-family="Arial" font-size="14" fill="#6c757d">Personnel</text>
  <text x="40" y="270" font-family="Arial" font-size="14" fill="#6c757d">Reports</text>
  <text x="40" y="310" font-family="Arial" font-size="14" fill="#6c757d">Settings</text>
  
  <!-- Main content -->
  <text x="230" y="110" font-family="Arial" font-size="20" font-weight="bold" fill="#212529">Transaction History</text>
  
  <!-- Action buttons -->
  <rect x="580" y="90" width="80" height="30" rx="5" fill="#e9ecef"/>
  <text x="620" y="110" font-family="Arial" font-size="12" text-anchor="middle" fill="#495057">Filter</text>
  
  <rect x="670" y="90" width="80" height="30" rx="5" fill="#4dabf7"/>
  <text x="710" y="110" font-family="Arial" font-size="12" text-anchor="middle" fill="#ffffff">New Checkout</text>
  
  <!-- Search bar -->
  <rect x="230" y="130" width="520" height="40" rx="5" fill="#ffffff" stroke="#e9ecef"/>
  <text x="250" y="155" font-family="Arial" font-size="14" fill="#adb5bd">Search transactions...</text>
  
  <!-- Table header -->
  <rect x="230" y="180" width="520" height="40" rx="0" fill="#f8f9fa" stroke="#e9ecef"/>
  <text x="250" y="205" font-family="Arial" font-size="12" font-weight="bold" fill="#495057">Transaction ID</text>
  <text x="350" y="205" font-family="Arial" font-size="12" font-weight="bold" fill="#495057">Item</text>
  <text x="470" y="205" font-family="Arial" font-size="12" font-weight="bold" fill="#495057">Person</text>
  <text x="570" y="205" font-family="Arial" font-size="12" font-weight="bold" fill="#495057">Status</text>
  <text x="670" y="205" font-family="Arial" font-size="12" font-weight="bold" fill="#495057">Actions</text>
  
  <!-- Table rows -->
  <rect x="230" y="220" width="520" height="40" rx="0" fill="#ffffff" stroke="#e9ecef"/>
  <text x="250" y="245" font-family="Arial" font-size="12" fill="#212529">TRX-0023</text>
  <text x="350" y="245" font-family="Arial" font-size="12" fill="#212529">Dell XPS 13</text>
  <text x="470" y="245" font-family="Arial" font-size="12" fill="#212529">Michael Davis</text>
  <rect x="570" y="230" width="80" height="20" rx="10" fill="#e7f5ff"/>
  <text x="610" y="245" font-family="Arial" font-size="12" text-anchor="middle" fill="#1971c2">Checked In</text>
  <rect x="670" y="230" width="60" height="20" rx="3" fill="#e9ecef"/>
  <text x="700" y="245" font-family="Arial" font-size="12" text-anchor="middle" fill="#495057">View</text>
  
  <rect x="230" y="260" width="520" height="40" rx="0" fill="#ffffff" stroke="#e9ecef"/>
  <text x="250" y="285" font-family="Arial" font-size="12" fill="#212529">TRX-0022</text>
  <text x="350" y="285" font-family="Arial" font-size="12" fill="#212529">EPSON Projector</text>
  <text x="470" y="285" font-family="Arial" font-size="12" fill="#212529">Sarah Johnson</text>
  <rect x="570" y="270" width="80" height="20" rx="10" fill="#e7f5ff"/>
  <text x="610" y="285" font-family="Arial" font-size="12" text-anchor="middle" fill="#1971c2">Checked In</text>
  <rect x="670" y="270" width="60" height="20" rx="3" fill="#e9ecef"/>
  <text x="700" y="285" font-family="Arial" font-size="12" text-anchor="middle" fill="#495057">View</text>
  
  <rect x="230" y="300" width="520" height="40" rx="0" fill="#ffffff" stroke="#e9ecef"/>
  <text x="250" y="325" font-family="Arial" font-size="12" fill="#212529">TRX-0021</text>
  <text x="350" y="325" font-family="Arial" font-size="12" fill="#212529">iPhone 15 Pro</text>
  <text x="470" y="325" font-family="Arial" font-size="12" fill="#212529">John Smith</text>
  <rect x="570" y="310" width="80" height="20" rx="10" fill="#fff9db"/>
  <text x="610" y="325" font-family="Arial" font-size="12" text-anchor="middle" fill="#f08c00">Checked Out</text>
  <rect x="670" y="310" width="60" height="20" rx="3" fill="#e9ecef"/>
  <text x="700" y="325" font-family="Arial" font-size="12" text-anchor="middle" fill="#495057">View</text>
  
  <rect x="230" y="340" width="520" height="40" rx="0" fill="#ffffff" stroke="#e9ecef"/>
  <text x="250" y="365" font-family="Arial" font-size="12" fill="#212529">TRX-0020</text>
  <text x="350" y="365" font-family="Arial" font-size="12" fill="#212529">Dell 27" Monitor</text>
  <text x="470" y="365" font-family="Arial" font-size="12" fill="#212529">Emily Wilson</text>
  <rect x="570" y="350" width="80" height="20" rx="10" fill="#e7f5ff"/>
  <text x="610" y="365" font-family="Arial" font-size="12" text-anchor="middle" fill="#1971c2">Checked In</text>
  <rect x="670" y="350" width="60" height="20" rx="3" fill="#e9ecef"/>
  <text x="700" y="365" font-family="Arial" font-size="12" text-anchor="middle" fill="#495057">View</text>
  
  <rect x="230" y="380" width="520" height="40" rx="0" fill="#ffffff" stroke="#e9ecef"/>
  <text x="250" y="405" font-family="Arial" font-size="12" fill="#212529">TRX-0019</text>
  <text x="350" y="405" font-family="Arial" font-size="12" fill="#212529">Logitech MX Keys</text>
  <text x="470" y="405" font-family="Arial" font-size="12" fill="#212529">Robert Brown</text>
  <rect x="570" y="390" width="80" height="20" rx="10" fill="#fff9db"/>
  <text x="610" y="405" font-family="Arial" font-size="12" text-anchor="middle" fill="#f08c00">Checked Out</text>
  <rect x="670" y="390" width="60" height="20" rx="3" fill="#e9ecef"/>
  <text x="700" y="405" font-family="Arial" font-size="12" text-anchor="middle" fill="#495057">View</text>
  
  <rect x="230" y="420" width="520" height="40" rx="0" fill="#ffffff" stroke="#e9ecef"/>
  <text x="250" y="445" font-family="Arial" font-size="12" fill="#212529">TRX-0018</text>
  <text x="350" y="445" font-family="Arial" font-size="12" fill="#212529">MacBook Pro 16"</text>
  <text x="470" y="445" font-family="Arial" font-size="12" fill="#212529">Jennifer Lee</text>
  <rect x="570" y="430" width="80" height="20" rx="10" fill="#ffe3e3"/>
  <text x="610" y="445" font-family="Arial" font-size="12" text-anchor="middle" fill="#c92a2a">Overdue</text>
  <rect x="670" y="430" width="60" height="20" rx="3" fill="#e9ecef"/>
  <text x="700" y="445" font-family="Arial" font-size="12" text-anchor="middle" fill="#495057">View</text>
  
  <!-- Pagination -->
  <rect x="230" y="490" width="520" height="40" rx="0" fill="#ffffff"/>
  <text x="250" y="515" font-family="Arial" font-size="12" fill="#6c757d">Showing 1-6 of 128 transactions</text>
  
  <rect x="600" y="495" width="30" height="30" rx="3" fill="#e9ecef"/>
  <text x="615" y="515" font-family="Arial" font-size="12" text-anchor="middle" fill="#495057">1</text>
  
  <rect x="635" y="495" width="30" height="30" rx="3" fill="#ffffff" stroke="#e9ecef"/>
  <text x="650" y="515" font-family="Arial" font-size="12" text-anchor="middle" fill="#495057">2</text>
  
  <rect x="670" y="495" width="30" height="30" rx="3" fill="#ffffff" stroke="#e9ecef"/>
  <text x="685" y="515" font-family="Arial" font-size="12" text-anchor="middle" fill="#495057">3</text>
  
  <rect x="705" y="495" width="45" height="30" rx="3" fill="#ffffff" stroke="#e9ecef"/>
  <text x="727" y="515" font-family="Arial" font-size="12" text-anchor="middle" fill="#495057">Next</text>
</svg>